<?xml version="1.0" standalone="no"?>
<!DOCTYPE svg PUBLIC "-//W3C//DTD SVG 20010904//EN"
 "http://www.w3.org/TR/2001/REC-SVG-20010904/DTD/svg10.dtd">
<svg version="1.0" xmlns="http://www.w3.org/2000/svg"
 width="260.000000pt" height="260.000000pt" viewBox="0 0 260.000000 260.000000"
 preserveAspectRatio="xMidYMid meet">
<metadata>
Created by potrace 1.14, written by Peter Selinger 2001-2017
</metadata>
<g transform="translate(0.000000,260.000000) scale(0.100000,-0.100000)"
fill="#000000" stroke="none">
<path d="M859 2126 c-2 -2 -19 -6 -37 -9 -54 -9 -158 -63 -208 -109 -56 -51
-105 -124 -129 -193 -21 -59 -28 -191 -14 -255 13 -63 69 -170 88 -171 9 0 45
0 81 1 65 1 95 15 250 110 8 5 71 41 140 80 194 111 252 146 261 161 4 7 27
14 50 16 23 1 46 6 50 10 14 14 -6 32 -38 35 -20 1 -29 6 -26 15 6 16 -3 14
113 16 79 2 95 5 98 19 5 25 -8 28 -110 30 l-93 1 -32 47 c-33 50 -102 115
-140 133 -33 15 -28 22 14 22 31 0 38 4 38 20 0 19 -8 20 -176 23 -96 1 -177
1 -180 -2z"/>
<path d="M1260 2115 c-18 -21 -1 -33 47 -33 29 0 34 3 31 22 -4 27 -58 35 -78
11z"/>
<path d="M1575 1870 c-12 -20 16 -41 47 -36 36 6 42 11 35 31 -7 17 -72 21
-82 5z"/>
<path d="M1175 1593 c-66 -40 -179 -107 -252 -149 -127 -74 -133 -79 -158
-132 -79 -166 -66 -386 30 -547 83 -138 236 -250 387 -281 42 -9 203 -11 243
-2 205 43 385 202 450 397 9 28 18 60 19 69 2 13 15 18 62 20 32 2 63 7 69 13
17 17 -15 34 -68 34 -45 0 -52 3 -52 20 0 20 4 22 58 24 35 1 40 40 5 42 -54
3 -61 5 -63 19 -19 120 -37 173 -86 255 -101 167 -278 276 -464 287 -59 4 -62
3 -180 -69z"/>
<path d="M2069 1009 c-24 -14 -1 -39 36 -39 32 0 36 3 33 22 -2 16 -10 22 -30
23 -15 1 -32 -1 -39 -6z"/>
</g>
</svg>
